<svg width="303" height="210" viewBox="0 0 303 210" fill="none" xmlns="http://www.w3.org/2000/svg">
<path fill-rule="evenodd" clip-rule="evenodd" d="M327.129 45.4781C245.115 45.4781 231.97 152.033 182.389 195.183C218.431 222.652 263.118 209.757 281.978 170.357C296.624 139.78 318.02 88.2356 368.851 88.2356C382.496 88.2356 395.248 92.1649 406 98.9518C393.534 67.5891 362.921 45.4424 327.129 45.4424" fill="#E3E9E9"/>
<path fill-rule="evenodd" clip-rule="evenodd" d="M45.1508 45.4785C25.7545 45.4785 8.8587 56.159 0 71.9832C35.8992 73.412 40.7571 105.918 49.1158 132.601C53.3308 146.032 65.833 155.391 80.1569 155.391C98.1244 155.391 112.698 140.817 112.698 122.849C112.698 94.4157 76.8706 45.4785 45.1508 45.4785Z" fill="#E3E9E9"/>
<path fill-rule="evenodd" clip-rule="evenodd" d="M275.513 -31C159.671 -31 152.134 213.293 61.9756 166.142C67.798 181.537 79.3715 194.754 95.41 202.327C207.001 255.014 211.716 16.7941 311.519 16.7941C329.487 16.7941 345.847 23.581 358.17 34.7615C349.526 -2.88793 315.77 -31 275.477 -31" fill="#E3E9E9"/>
</svg>
