<svg width="296" height="40" viewBox="0 0 296 40" fill="none" xmlns="http://www.w3.org/2000/svg">
<path fill-rule="evenodd" clip-rule="evenodd" d="M55.206 13.0637C42.2736 13.0637 40.1973 29.8713 32.3752 36.682C38.0583 41.0137 45.1107 38.9821 48.082 32.762C50.391 27.9382 53.7651 19.8118 61.784 19.8118C63.9409 19.8118 65.9456 20.4293 67.6461 21.5033C65.6771 16.5541 60.8532 13.0637 55.206 13.0637Z" fill="white"/>
<path fill-rule="evenodd" clip-rule="evenodd" d="M10.7348 13.0637C7.67401 13.0637 5.00699 14.7463 3.61084 17.2432C9.26706 17.467 10.0457 22.5952 11.3613 26.8015C12.0236 28.9137 14.0015 30.3993 16.2568 30.3993C19.0938 30.3993 21.385 28.0992 21.385 25.2711C21.385 20.7873 15.7377 13.0637 10.7259 13.0637" fill="white"/>
<path fill-rule="evenodd" clip-rule="evenodd" d="M47.0706 1C28.7953 1 27.6139 39.5375 13.3928 32.0913C14.3146 34.5167 16.1314 36.602 18.6642 37.8012C36.2683 46.1065 37.0111 8.53566 52.7537 8.53566C55.5818 8.53566 58.1682 9.60962 60.1193 11.3727C58.75 5.4301 53.4338 1 47.0795 1" fill="white"/>
<path d="M82.9858 13.5655C82.6457 13.2433 82.1356 13.0464 81.4644 12.9927V12.5452C81.536 12.5452 81.6523 12.5452 81.7955 12.5183C81.9387 12.5004 82.0819 12.4915 82.234 12.4915C83.0664 12.4915 83.8092 12.6794 84.4804 13.0553C85.1516 13.4312 85.6886 14.2009 86.0914 15.3554L89.1164 24.0724L91.5328 16.9126L90.9868 15.3554C90.6826 14.4783 90.3693 13.8876 90.0292 13.5565C89.6891 13.2343 89.179 13.0374 88.5078 12.9837V12.5362C88.5794 12.5362 88.6957 12.5362 88.8389 12.5094C88.9821 12.4915 89.1253 12.4825 89.2775 12.4825C90.1098 12.4825 90.8526 12.6705 91.5238 13.0464C92.1951 13.4223 92.732 14.1919 93.1348 15.3464L96.1598 24.0635L100.026 12.6973H101.002L95.8286 27.8313H95.3812L92.034 18.3178L88.7852 27.8313H88.3377L83.9524 15.3375C83.6481 14.4604 83.3348 13.8697 82.9948 13.5386L82.9858 13.5655Z" fill="white"/>
<path d="M115.026 27.0787C114.319 26.7207 113.755 25.96 113.334 24.7965L112.771 23.2124H106.443L104.635 27.6157H103.615L109.942 12.5891H110.623L115.59 24.7876C115.966 25.6646 116.324 26.2643 116.655 26.5865C116.986 26.9087 117.46 27.0966 118.078 27.1592V27.6157H117.174C116.449 27.6157 115.733 27.4367 115.026 27.0698V27.0787ZM112.314 22.3174L109.602 15.7663L106.774 22.3174H112.305H112.314Z" fill="white"/>
<path d="M122.696 13.6189C120.816 13.6189 119.868 14.487 119.868 16.2143H119.42V14.5228C119.42 13.3146 120.056 12.715 121.344 12.715H131.851V13.6189H126.768V27.6252H124.736V13.6189H122.705H122.696Z" fill="white"/>
<path d="M145.231 27.0787C144.524 26.7207 143.96 25.96 143.54 24.7965L142.976 23.2124H136.648L134.841 27.6157H133.82L140.148 12.5891H140.828L145.795 24.7876C146.171 25.6646 146.529 26.2643 146.86 26.5865C147.191 26.9087 147.666 27.0966 148.283 27.1592V27.6157H147.379C146.654 27.6157 145.938 27.4367 145.231 27.0698V27.0787ZM142.519 22.3174L139.808 15.7663L136.98 22.3174H142.51H142.519Z" fill="white"/>
<path d="M154.458 27.5889C153.662 27.4189 153.008 27.1146 152.507 26.694C152.006 26.2733 151.747 25.79 151.747 25.2441V22.6666H152.149C152.409 24.2775 152.901 25.3962 153.644 26.0138C154.378 26.6313 155.398 26.9356 156.696 26.9356C157.51 26.9356 158.208 26.7566 158.781 26.4076C159.363 26.0496 159.649 25.5126 159.649 24.7877C159.649 24.1522 159.452 23.6063 159.058 23.1409C158.665 22.6755 158.038 22.1833 157.161 21.6732L154.387 20.0264C153.42 19.4536 152.74 18.8719 152.346 18.2902C151.952 17.7084 151.747 16.9835 151.747 16.1422C151.747 14.9788 152.149 14.0301 152.955 13.2694C153.76 12.5176 154.816 12.1417 156.132 12.1417C156.902 12.1417 157.662 12.276 158.414 12.5445C159.166 12.8129 159.792 13.162 160.276 13.5737C160.768 13.9854 161.01 14.4686 161.01 15.0056V17.261H160.607C160.347 15.8648 159.864 14.8087 159.148 14.1017C158.432 13.3947 157.43 13.0367 156.132 13.0367C155.443 13.0367 154.825 13.2694 154.306 13.7437C153.778 14.2181 153.519 14.7908 153.519 15.471C153.519 16.0885 153.707 16.5987 154.091 17.0104C154.476 17.4131 155.121 17.8874 156.025 18.4334L158.799 20.0801C159.819 20.6976 160.544 21.2704 160.965 21.7985C161.385 22.3265 161.6 22.9977 161.6 23.8122C161.6 25.0741 161.18 26.0675 160.338 26.7745C159.497 27.4815 158.351 27.8395 156.902 27.8395C156.069 27.8395 155.264 27.75 154.458 27.58V27.5889Z" fill="white"/>
<path d="M167.507 13.7173C167.292 13.3504 166.872 13.1625 166.245 13.1625H165.798V12.715H167.829C168.384 12.715 168.805 12.7866 169.082 12.9298C169.36 13.073 169.556 13.3325 169.682 13.7084C169.798 14.0843 169.861 14.6571 169.861 15.4267V19.4899H176.636V12.715H178.667V24.9134C178.667 25.6831 178.775 26.2469 178.981 26.6228C179.195 26.9898 179.616 27.1777 180.242 27.1777H180.69V27.6252H178.658C178.103 27.6252 177.683 27.5536 177.405 27.4104C177.128 27.2672 176.931 27.0077 176.806 26.6318C176.68 26.2559 176.627 25.6831 176.627 24.9134V20.3938H169.852V27.6252H167.82V15.4267C167.82 14.6571 167.713 14.0932 167.507 13.7173Z" fill="white"/>
<path d="M186.731 27.4104C186.454 27.2672 186.257 27.0077 186.131 26.6318C186.015 26.2559 185.952 25.6831 185.952 24.9134V12.715H187.984V24.9134C187.984 25.6831 188.091 26.2469 188.297 26.6228C188.512 26.9898 188.933 27.1777 189.559 27.1777H190.007V27.6252H187.975C187.42 27.6252 187 27.5536 186.722 27.4104H186.731Z" fill="white"/>
<path d="M202.634 13.6189C200.755 13.6189 199.806 14.487 199.806 16.2143H199.359V14.5228C199.359 13.3146 199.994 12.715 201.283 12.715H211.79V13.6189H206.707V27.6252H204.675V13.6189H202.643H202.634Z" fill="white"/>
<path d="M225.161 27.1419C224.561 26.6676 223.908 25.8173 223.183 24.5733L220.928 20.7339H219.344V27.6252H217.312V15.4267C217.312 14.6571 217.205 14.0932 216.999 13.7173C216.784 13.3504 216.364 13.1625 215.737 13.1625H215.29V12.715H221.161C222.593 12.715 223.89 13.0014 225.054 13.5652C226.217 14.129 226.808 15.203 226.808 16.7871C226.808 18.7918 225.6 20.0716 223.192 20.6265L225.564 24.5823C226.119 25.5131 226.62 26.1664 227.067 26.5333C227.515 26.9003 228.025 27.1151 228.616 27.1777V27.6252C228.481 27.6878 228.285 27.7415 228.043 27.7863C227.792 27.831 227.533 27.8579 227.264 27.8579C226.468 27.8579 225.77 27.6162 225.179 27.1509L225.161 27.1419ZM222.566 19.6062C223.112 19.3825 223.586 19.0245 223.962 18.5412C224.347 18.058 224.535 17.4762 224.535 16.7781C224.535 16.0443 224.347 15.4267 223.962 14.9345C223.577 14.4423 223.112 14.0843 222.566 13.8516C222.02 13.6189 221.51 13.5025 221.044 13.5025C220.516 13.5025 219.952 13.5741 219.353 13.7263V19.7136C219.952 19.8658 220.516 19.9374 221.044 19.9374C221.51 19.9374 222.02 19.821 222.566 19.5973V19.6062Z" fill="white"/>
<path d="M243.123 27.0787C242.416 26.7207 241.852 25.96 241.432 24.7965L240.868 23.2124H234.54L232.732 27.6157H231.712L238.04 12.5891H238.72L243.687 24.7876C244.063 25.6646 244.421 26.2643 244.752 26.5865C245.083 26.9087 245.557 27.0966 246.175 27.1592V27.6157H245.271C244.546 27.6157 243.83 27.4367 243.123 27.0698V27.0787ZM240.411 22.3174L237.7 15.7663L234.871 22.3174H240.402H240.411Z" fill="white"/>
<path d="M247.634 13.5653C247.303 13.2431 246.828 13.0462 246.211 12.9925V12.545C246.282 12.545 246.399 12.545 246.542 12.5182C246.685 12.5003 246.828 12.4913 246.98 12.4913C247.732 12.4913 248.457 12.6793 249.146 13.0641C249.835 13.449 250.426 14.2097 250.909 15.3552L254.776 24.4571L256.109 21.3605C256.745 19.9017 257.953 17.0199 259.743 12.7061H260.826L254.346 27.8401H253.943L248.699 15.3463C248.323 14.4692 247.965 13.8785 247.634 13.5474V13.5653Z" fill="white"/>
<path d="M266.258 13.7173C266.043 13.3504 265.623 13.1625 264.996 13.1625H264.549V12.715H274.17C275.45 12.715 276.094 13.3146 276.094 14.5228V16.2143H275.646C275.646 14.4781 274.707 13.6189 272.818 13.6189H268.621V19.4899H274.725V20.3938H268.621V26.7213H272.577C273.615 26.7213 274.429 26.5333 275.02 26.1574C275.611 25.7815 276.076 25.1372 276.416 24.2333L276.864 24.3496L276.076 26.4975C275.808 27.2493 275.244 27.6252 274.385 27.6252H266.589V15.4267C266.589 14.6571 266.482 14.0932 266.276 13.7173H266.258Z" fill="white"/>
<path d="M282.448 13.7173C282.233 13.3504 281.813 13.1625 281.186 13.1625H280.739V12.715H282.77C283.325 12.715 283.746 12.7866 284.023 12.9298C284.301 13.073 284.498 13.3325 284.623 13.7084C284.739 14.0843 284.802 14.6571 284.802 15.4267V26.7213H292.821V27.6252H282.77V15.4267C282.77 14.6571 282.663 14.0932 282.457 13.7173H282.448Z" fill="white"/>
</svg>
