<svg width="415" height="56" viewBox="0 0 415 56" fill="none" xmlns="http://www.w3.org/2000/svg">
<path fill-rule="evenodd" clip-rule="evenodd" d="M77.2884 18.2896C59.1832 18.2896 56.2763 41.8201 45.3254 51.3552C53.2817 57.4195 63.1551 54.5753 67.3149 45.8672C70.5475 39.1138 75.2712 27.7369 86.4977 27.7369C89.5173 27.7369 92.324 28.6014 94.7046 30.105C91.9481 23.1761 85.1946 18.2896 77.2884 18.2896Z" fill="white"/>
<path fill-rule="evenodd" clip-rule="evenodd" d="M15.0287 18.2896C10.7436 18.2896 7.00979 20.6451 5.05518 24.1409C12.9739 24.4541 14.064 31.6336 15.9058 37.5225C16.833 40.4795 19.602 42.5594 22.7595 42.5594C26.7314 42.5594 29.939 39.3393 29.939 35.3799C29.939 29.1026 22.0328 18.2896 15.0162 18.2896" fill="white"/>
<path fill-rule="evenodd" clip-rule="evenodd" d="M65.8989 1.3999C40.3134 1.3999 38.6595 55.3524 18.75 44.9277C20.0405 48.3232 22.5841 51.2426 26.1299 52.9216C50.7756 64.5491 51.8156 11.9498 73.8552 11.9498C77.8145 11.9498 81.4356 13.4534 84.167 15.9217C82.25 7.60205 74.8074 1.3999 65.9114 1.3999" fill="white"/>
<path d="M116.18 18.9917C115.704 18.5406 114.99 18.2649 114.05 18.1898V17.5633C114.151 17.5633 114.313 17.5633 114.514 17.5257C114.714 17.5006 114.915 17.4881 115.128 17.4881C116.293 17.4881 117.333 17.7512 118.273 18.2775C119.212 18.8037 119.964 19.8813 120.528 21.4976L124.763 33.7014L128.146 23.6777L127.382 21.4976C126.956 20.2697 126.517 19.4427 126.041 18.9791C125.565 18.5281 124.851 18.2524 123.911 18.1772V17.5508C124.011 17.5508 124.174 17.5508 124.375 17.5132C124.575 17.4881 124.776 17.4756 124.989 17.4756C126.154 17.4756 127.194 17.7387 128.134 18.265C129.073 18.7912 129.825 19.8687 130.389 21.4851L134.624 33.6889L140.037 17.7763H141.402L134.16 38.9638H133.534L128.848 25.6449L124.3 38.9638H123.673L117.534 21.4725C117.108 20.2446 116.669 19.4177 116.193 18.9541L116.18 18.9917Z" fill="white"/>
<path d="M161.036 37.9104C160.046 37.4092 159.257 36.3442 158.668 34.7154L157.879 32.4976H149.02L146.489 38.6622H145.061L153.919 17.625H154.871L161.825 34.7028C162.352 35.9307 162.853 36.7702 163.316 37.2213C163.78 37.6724 164.444 37.9355 165.309 38.0232V38.6622H164.043C163.028 38.6622 162.026 38.4116 161.036 37.8979V37.9104ZM157.24 31.2447L153.443 22.073L149.484 31.2447H157.227H157.24Z" fill="white"/>
<path d="M171.774 19.0663C169.143 19.0663 167.815 20.2816 167.815 22.6999H167.188V20.3318C167.188 18.6403 168.078 17.8008 169.882 17.8008H184.592V19.0663H177.475V38.6751H174.631V19.0663H171.787H171.774Z" fill="white"/>
<path d="M203.324 37.9104C202.334 37.4092 201.544 36.3442 200.956 34.7154L200.166 32.4976H191.308L188.777 38.6622H187.348L196.207 17.625H197.159L204.113 34.7028C204.639 35.9307 205.14 36.7702 205.604 37.2213C206.068 37.6724 206.732 37.9355 207.596 38.0232V38.6622H206.331C205.316 38.6622 204.313 38.4116 203.324 37.8979V37.9104ZM199.527 31.2447L195.731 22.073L191.771 31.2447H199.515H199.527Z" fill="white"/>
<path d="M216.242 38.6241C215.126 38.3861 214.212 37.9601 213.51 37.3712C212.808 36.7823 212.445 36.1057 212.445 35.3414V31.7329H213.009C213.372 33.9882 214.061 35.5544 215.101 36.4189C216.129 37.2835 217.557 37.7095 219.374 37.7095C220.514 37.7095 221.491 37.4589 222.293 36.9702C223.108 36.469 223.509 35.7173 223.509 34.7024C223.509 33.8128 223.233 33.0485 222.682 32.3969C222.13 31.7454 221.253 31.0563 220.025 30.3421L216.141 28.0366C214.788 27.2347 213.836 26.4203 213.285 25.6059C212.733 24.7915 212.445 23.7766 212.445 22.5988C212.445 20.9699 213.009 19.6418 214.137 18.5768C215.264 17.5243 216.743 16.998 218.585 16.998C219.662 16.998 220.727 17.186 221.78 17.5619C222.832 17.9378 223.709 18.4264 224.386 19.0028C225.075 19.5792 225.413 20.2557 225.413 21.0075V24.165H224.849C224.486 22.2104 223.809 20.7319 222.807 19.742C221.805 18.7522 220.401 18.251 218.585 18.251C217.62 18.251 216.755 18.5768 216.029 19.2409C215.289 19.9049 214.926 20.7068 214.926 21.6591C214.926 22.5236 215.189 23.2378 215.728 23.8142C216.267 24.378 217.169 25.042 218.434 25.8064L222.318 28.1118C223.747 28.9763 224.762 29.7782 225.351 30.5175C225.939 31.2567 226.24 32.1965 226.24 33.3367C226.24 35.1033 225.651 36.4941 224.473 37.4839C223.296 38.4738 221.692 38.975 219.662 38.975C218.497 38.975 217.369 38.8497 216.242 38.6116V38.6241Z" fill="white"/>
<path d="M234.51 19.2041C234.209 18.6904 233.62 18.4273 232.743 18.4273H232.116V17.8008H234.961C235.738 17.8008 236.326 17.901 236.715 18.1015C237.103 18.302 237.379 18.6653 237.554 19.1916C237.717 19.7178 237.805 20.5197 237.805 21.5972V27.2857H247.29V17.8008H250.134V34.8786C250.134 35.9562 250.284 36.7455 250.573 37.2718C250.873 37.7855 251.462 38.0486 252.339 38.0486H252.966V38.6751H250.121C249.345 38.6751 248.756 38.5749 248.367 38.3744C247.979 38.1739 247.703 37.8106 247.528 37.2843C247.352 36.7581 247.277 35.9562 247.277 34.8786V28.5512H237.792V38.6751H234.948V21.5972C234.948 20.5197 234.798 19.7304 234.51 19.2041Z" fill="white"/>
<path d="M261.423 38.3744C261.035 38.1739 260.759 37.8106 260.584 37.2843C260.421 36.7581 260.333 35.9562 260.333 34.8786V17.8008H263.177V34.8786C263.177 35.9562 263.328 36.7455 263.616 37.2718C263.917 37.7855 264.506 38.0486 265.383 38.0486H266.009V38.6751H263.165C262.388 38.6751 261.799 38.5749 261.411 38.3744H261.423Z" fill="white"/>
<path d="M283.688 19.0663C281.057 19.0663 279.729 20.2816 279.729 22.6999H279.103V20.3318C279.103 18.6403 279.992 17.8008 281.796 17.8008H296.506V19.0663H289.389V38.6751H286.545V19.0663H283.701H283.688Z" fill="white"/>
<path d="M315.225 37.9985C314.386 37.3344 313.471 36.1441 312.456 34.4025L309.299 29.0273H307.081V38.6751H304.237V21.5972C304.237 20.5197 304.087 19.7304 303.798 19.2041C303.498 18.6904 302.909 18.4273 302.032 18.4273H301.405V17.8008H309.625C311.629 17.8008 313.446 18.2017 315.075 18.9911C316.704 19.7805 317.531 21.284 317.531 23.5018C317.531 26.3084 315.839 28.1001 312.469 28.8769L315.789 34.415C316.566 35.7181 317.268 36.6328 317.894 37.1465C318.521 37.6602 319.235 37.9609 320.062 38.0486V38.6751C319.874 38.7628 319.598 38.838 319.26 38.9006C318.909 38.9633 318.546 39.0009 318.17 39.0009C317.055 39.0009 316.077 38.6626 315.25 38.011L315.225 37.9985ZM311.592 27.4486C312.356 27.1353 313.02 26.6342 313.546 25.9576C314.085 25.281 314.348 24.4665 314.348 23.4892C314.348 22.4618 314.085 21.5972 313.546 20.9081C313.008 20.219 312.356 19.7178 311.592 19.392C310.828 19.0663 310.113 18.9034 309.462 18.9034C308.723 18.9034 307.933 19.0036 307.094 19.2166V27.5989C307.933 27.8119 308.723 27.9122 309.462 27.9122C310.113 27.9122 310.828 27.7493 311.592 27.436V27.4486Z" fill="white"/>
<path d="M340.372 37.9104C339.382 37.4092 338.593 36.3442 338.004 34.7154L337.215 32.4976H328.356L325.825 38.6622H324.397L333.255 17.625H334.208L341.162 34.7028C341.688 35.9307 342.189 36.7702 342.653 37.2213C343.116 37.6724 343.78 37.9355 344.645 38.0232V38.6622H343.379C342.364 38.6622 341.362 38.4116 340.372 37.8979V37.9104ZM336.576 31.2447L332.779 22.073L328.82 31.2447H336.563H336.576Z" fill="white"/>
<path d="M346.687 18.9913C346.224 18.5403 345.56 18.2646 344.695 18.1894V17.563C344.795 17.563 344.958 17.563 345.159 17.5254C345.359 17.5003 345.56 17.4878 345.773 17.4878C346.825 17.4878 347.84 17.7509 348.805 18.2897C349.77 18.8285 350.597 19.8935 351.273 21.4973L356.686 34.2399L358.553 29.9046C359.442 27.8623 361.134 23.8278 363.64 17.7885H365.156L356.084 38.9761H355.521L348.178 21.4847C347.652 20.2568 347.151 19.4299 346.687 18.9663V18.9913Z" fill="white"/>
<path d="M372.761 19.2041C372.461 18.6904 371.872 18.4273 370.995 18.4273H370.368V17.8008H383.837C385.629 17.8008 386.531 18.6403 386.531 20.3318V22.6999H385.905C385.905 20.2691 384.589 19.0663 381.945 19.0663H376.069V27.2857H384.614V28.5512H376.069V37.4096H381.607C383.061 37.4096 384.201 37.1465 385.028 36.6202C385.855 36.094 386.506 35.1919 386.982 33.9264L387.609 34.0893L386.506 37.0964C386.13 38.1489 385.341 38.6751 384.138 38.6751H373.225V21.5972C373.225 20.5197 373.075 19.7304 372.786 19.2041H372.761Z" fill="white"/>
<path d="M395.427 19.2041C395.127 18.6904 394.538 18.4273 393.661 18.4273H393.034V17.8008H395.878C396.655 17.8008 397.244 17.901 397.633 18.1015C398.021 18.302 398.297 18.6653 398.472 19.1916C398.635 19.7178 398.723 20.5197 398.723 21.5972V37.4096H409.949V38.6751H395.878V21.5972C395.878 20.5197 395.728 19.7304 395.44 19.2041H395.427Z" fill="white"/>
</svg>
