<svg width="22" height="22" viewBox="0 0 22 22" fill="none" xmlns="http://www.w3.org/2000/svg">
<path d="M21.2857 11.0001C21.2857 5.31948 16.6806 0.714355 11 0.714355C5.31941 0.714355 0.714294 5.31948 0.714294 11.0001C0.714294 15.8237 4.03535 19.8713 8.51539 20.983V14.1434H6.39448V11.0001H8.51539V9.64565C8.51539 6.1448 10.0998 4.52213 13.5369 4.52213C14.1886 4.52213 15.313 4.65008 15.773 4.77762V7.62677C15.5302 7.60126 15.1085 7.5885 14.5848 7.5885C12.8983 7.5885 12.2466 8.22745 12.2466 9.88839V11.0001H15.6064L15.0291 14.1434H12.2466V21.2105C17.3397 20.5954 21.2861 16.259 21.2861 11.0001H21.2857Z" fill="#0866FF"/>
</svg>
