<svg width="25" height="24" viewBox="0 0 25 24" fill="none" xmlns="http://www.w3.org/2000/svg">
<path d="M12.4998 10.1299V14.1133H18.0354C17.7923 15.3943 17.0629 16.479 15.9689 17.2084L19.3071 19.7985C21.252 18.0032 22.3741 15.3663 22.3741 12.2339C22.3741 11.5045 22.3086 10.8032 22.187 10.13L12.4998 10.1299Z" fill="#4285F4"/>
<path d="M6.73543 13.9578L5.98255 14.5341L3.31757 16.6099C5.01003 19.9667 8.47886 22.2857 12.4996 22.2857C15.2767 22.2857 17.605 21.3694 19.3068 19.7985L15.9687 17.2084C15.0523 17.8255 13.8834 18.1996 12.4996 18.1996C9.82534 18.1996 7.5532 16.3949 6.73963 13.9637L6.73543 13.9578Z" fill="#34A853"/>
<path d="M3.31759 7.39014C2.61633 8.77398 2.21429 10.3356 2.21429 11.9999C2.21429 13.6643 2.61633 15.2259 3.31759 16.6098C3.31759 16.619 6.73999 13.9542 6.73999 13.9542C6.53427 13.337 6.41268 12.6825 6.41268 11.9998C6.41268 11.3172 6.53427 10.6626 6.73999 10.0455L3.31759 7.39014Z" fill="#FBBC05"/>
<path d="M12.4998 5.80994C14.0146 5.80994 15.3611 6.33356 16.4364 7.34344L19.3819 4.39803C17.5959 2.73364 15.277 1.71436 12.4998 1.71436C8.47907 1.71436 5.01003 4.02396 3.31757 7.39021L6.73986 10.0458C7.55331 7.6146 9.82555 5.80994 12.4998 5.80994Z" fill="#EA4335"/>
</svg>
