<svg width="421" height="189" viewBox="0 0 421 189" fill="none" xmlns="http://www.w3.org/2000/svg">
<g clip-path="url(#clip0_160_7538)">
<rect width="421" height="189" rx="16" fill="#F6F8F8"/>
<path fill-rule="evenodd" clip-rule="evenodd" d="M483.547 -6.01139C425.901 -6.01139 416.661 67.8163 381.812 97.7136C407.146 116.746 438.555 107.811 451.812 80.5127C462.106 59.3272 477.145 23.6137 512.872 23.6137C522.463 23.6137 531.427 26.3362 538.984 31.0386C530.222 9.30853 508.705 -6.03613 483.547 -6.03613" fill="#E3E9E9"/>
<path fill-rule="evenodd" clip-rule="evenodd" d="M285.35 -6.01074C271.717 -6.01074 259.841 1.38935 253.614 12.3534C278.847 13.3433 282.262 35.8653 288.137 54.3532C291.099 63.659 299.887 70.1433 309.955 70.1433C322.584 70.1433 332.828 60.0456 332.828 47.5966C332.828 27.896 307.645 -6.01074 285.35 -6.01074Z" fill="#E3E9E9"/>
<path fill-rule="evenodd" clip-rule="evenodd" d="M447.267 -59C365.844 -59 360.547 110.262 297.176 77.5922C301.268 88.2593 309.403 97.4166 320.676 102.663C399.111 139.169 402.426 -25.8852 472.575 -25.8852C485.204 -25.8852 496.703 -21.1828 505.365 -13.4363C499.289 -39.5222 475.563 -59 447.242 -59" fill="#E3E9E9"/>
<path d="M31.0068 37.3408C31.0068 37.9333 30.8587 38.4391 30.5625 38.8584C30.2708 39.2731 29.8607 39.5898 29.332 39.8086C28.8034 40.0273 28.1813 40.1367 27.4658 40.1367C27.0876 40.1367 26.7298 40.1185 26.3926 40.082C26.0553 40.0456 25.7454 39.9932 25.4629 39.9248C25.1803 39.8564 24.932 39.7721 24.7178 39.6719V38.5576C25.0596 38.6989 25.4766 38.8311 25.9688 38.9541C26.4609 39.0726 26.9759 39.1318 27.5137 39.1318C28.015 39.1318 28.4388 39.0658 28.7852 38.9336C29.1315 38.7969 29.3936 38.6032 29.5713 38.3525C29.7536 38.0973 29.8447 37.792 29.8447 37.4365C29.8447 37.0947 29.7695 36.8099 29.6191 36.582C29.4688 36.3496 29.2181 36.14 28.8672 35.9531C28.5208 35.7617 28.0469 35.5589 27.4453 35.3447C27.0215 35.1943 26.6478 35.0303 26.3242 34.8525C26.0007 34.6702 25.7295 34.4652 25.5107 34.2373C25.292 34.0094 25.1257 33.7451 25.0117 33.4443C24.9023 33.1436 24.8477 32.7995 24.8477 32.4121C24.8477 31.8789 24.9821 31.4232 25.251 31.0449C25.5244 30.6621 25.9004 30.3704 26.3789 30.1699C26.862 29.9648 27.4157 29.8623 28.04 29.8623C28.5732 29.8623 29.0654 29.9124 29.5166 30.0127C29.9723 30.113 30.3893 30.2474 30.7676 30.416L30.4053 31.4141C30.0452 31.2637 29.6624 31.1383 29.2568 31.0381C28.8558 30.9378 28.4411 30.8877 28.0127 30.8877C27.5843 30.8877 27.222 30.9515 26.9258 31.0791C26.6341 31.2021 26.4108 31.3776 26.2559 31.6055C26.1009 31.8333 26.0234 32.1045 26.0234 32.4189C26.0234 32.7699 26.0964 33.0615 26.2422 33.2939C26.3926 33.5264 26.6296 33.7337 26.9531 33.916C27.2812 34.0938 27.7142 34.2806 28.252 34.4766C28.8398 34.6908 29.3389 34.9186 29.749 35.1602C30.1592 35.3971 30.4714 35.6888 30.6855 36.0352C30.8997 36.377 31.0068 36.8122 31.0068 37.3408ZM37.9401 40H36.7712V31.0312H33.6266V30.0059H41.071V31.0312H37.9401V40ZM50.6703 40L49.4398 36.8281H45.4339L44.2103 40H43.0345L46.9447 29.9648H47.9906L51.8734 40H50.6703ZM49.0912 35.7959L47.9222 32.6445C47.8949 32.5625 47.8493 32.4281 47.7855 32.2412C47.7263 32.0544 47.6647 31.8607 47.6009 31.6602C47.5371 31.4596 47.4847 31.2979 47.4437 31.1748C47.3981 31.3617 47.348 31.5485 47.2933 31.7354C47.2432 31.9176 47.1931 32.0885 47.1429 32.248C47.0928 32.403 47.0495 32.5352 47.013 32.6445L45.8236 35.7959H49.0912ZM57.7813 30.0059C58.6016 30.0059 59.2784 30.1084 59.8116 30.3135C60.3493 30.514 60.7504 30.8216 61.0147 31.2363C61.279 31.651 61.4112 32.1797 61.4112 32.8223C61.4112 33.3509 61.3155 33.793 61.1241 34.1484C60.9327 34.4993 60.682 34.7842 60.3721 35.0029C60.0622 35.2217 59.7318 35.3903 59.3809 35.5088L62.1221 40H60.7686L58.3213 35.8301H56.2432V40H55.0811V30.0059H57.7813ZM57.7129 31.0107H56.2432V34.8457H57.8291C58.6449 34.8457 59.2442 34.6794 59.627 34.3467C60.0144 34.014 60.208 33.5241 60.208 32.877C60.208 32.1979 60.003 31.7171 59.5928 31.4346C59.1872 31.152 58.5606 31.0107 57.7129 31.0107ZM68.6111 40H67.4421V31.0312H64.2976V30.0059H71.7419V31.0312H68.6111V40ZM81.6915 40H80.5294V30.0059H86.0938V31.0312H81.6915V34.6953H85.8272V35.7139H81.6915V40ZM92.282 30.0059C93.1023 30.0059 93.7791 30.1084 94.3123 30.3135C94.85 30.514 95.2511 30.8216 95.5154 31.2363C95.7797 31.651 95.9119 32.1797 95.9119 32.8223C95.9119 33.3509 95.8162 33.793 95.6248 34.1484C95.4334 34.4993 95.1827 34.7842 94.8728 35.0029C94.5629 35.2217 94.2325 35.3903 93.8816 35.5088L96.6228 40H95.2693L92.822 35.8301H90.7439V40H89.5818V30.0059H92.282ZM92.2136 31.0107H90.7439V34.8457H92.3298C93.1456 34.8457 93.7449 34.6794 94.1277 34.3467C94.5151 34.014 94.7087 33.5241 94.7087 32.877C94.7087 32.1979 94.5037 31.7171 94.0935 31.4346C93.6879 31.152 93.0613 31.0107 92.2136 31.0107ZM108.71 34.9893C108.71 35.7594 108.612 36.4613 108.416 37.0947C108.22 37.7236 107.929 38.266 107.541 38.7217C107.159 39.1729 106.682 39.5215 106.113 39.7676C105.543 40.0137 104.882 40.1367 104.13 40.1367C103.356 40.1367 102.679 40.0137 102.1 39.7676C101.526 39.5215 101.047 39.1706 100.664 38.7148C100.286 38.2591 100.001 37.7145 99.81 37.0811C99.6231 36.4476 99.5297 35.7458 99.5297 34.9756C99.5297 33.9548 99.6983 33.0592 100.036 32.2891C100.373 31.5189 100.883 30.9196 101.567 30.4912C102.255 30.0628 103.116 29.8486 104.151 29.8486C105.14 29.8486 105.971 30.0605 106.646 30.4844C107.325 30.9082 107.838 31.5052 108.184 32.2754C108.535 33.041 108.71 33.9456 108.71 34.9893ZM100.753 34.9893C100.753 35.8369 100.874 36.5706 101.116 37.1904C101.357 37.8102 101.726 38.2887 102.223 38.626C102.724 38.9632 103.36 39.1318 104.13 39.1318C104.905 39.1318 105.539 38.9632 106.031 38.626C106.527 38.2887 106.894 37.8102 107.131 37.1904C107.368 36.5706 107.487 35.8369 107.487 34.9893C107.487 33.6995 107.216 32.6924 106.673 31.9678C106.136 31.2386 105.295 30.874 104.151 30.874C103.376 30.874 102.738 31.0404 102.237 31.373C101.735 31.7057 101.362 32.1797 101.116 32.7949C100.874 33.4056 100.753 34.137 100.753 34.9893ZM117.154 40L113.798 31.1543H113.743C113.762 31.3411 113.777 31.569 113.791 31.8379C113.805 32.1068 113.816 32.4007 113.825 32.7197C113.834 33.0342 113.839 33.3555 113.839 33.6836V40H112.759V30.0059H114.482L117.647 38.3184H117.694L120.907 30.0059H122.616V40H121.468V33.6016C121.468 33.3053 121.472 33.0091 121.482 32.7129C121.491 32.4121 121.502 32.1296 121.516 31.8652C121.529 31.5964 121.543 31.3639 121.557 31.168H121.502L118.105 40H117.154Z" fill="#707070"/>
<path d="M41.472 85.32C40.3413 85.32 39.3493 84.9893 38.496 84.328C37.664 83.6453 36.736 82.4293 35.712 80.68L32.512 75.24H30.272V85H27.392V67.72C27.392 66.632 27.2427 65.832 26.944 65.32C26.6453 64.7867 26.048 64.52 25.152 64.52H24.512V63.88H32.832C34.8587 63.88 36.6933 64.2853 38.336 65.096C40 65.8853 40.832 67.4 40.832 69.64C40.832 72.4773 39.1253 74.2907 35.712 75.08L39.072 80.68C39.8613 82.0027 40.5653 82.9307 41.184 83.464C41.824 83.976 42.56 84.2747 43.392 84.36V85C43.2 85.0853 42.9227 85.16 42.56 85.224C42.2187 85.288 41.856 85.32 41.472 85.32ZM32.672 74.12C33.3333 74.12 34.048 73.96 34.816 73.64C35.6053 73.32 36.2667 72.8187 36.8 72.136C37.3547 71.4533 37.632 70.6213 37.632 69.64C37.632 68.5947 37.3547 67.7307 36.8 67.048C36.2667 66.344 35.6053 65.832 34.816 65.512C34.048 65.1707 33.3333 65 32.672 65C31.9253 65 31.1253 65.1067 30.272 65.32V73.8C31.1253 74.0133 31.9253 74.12 32.672 74.12ZM45.8153 73.8C45.8153 72.712 45.6659 71.912 45.3673 71.4C45.0686 70.8667 44.4713 70.6 43.5753 70.6H42.9352V69.96H45.8153C46.6259 69.96 47.2339 70.0773 47.6393 70.312C48.0659 70.5253 48.3646 70.888 48.5353 71.4H48.6953C49.0793 70.9093 49.6233 70.4933 50.3273 70.152C51.0313 69.8107 51.9273 69.64 53.0153 69.64C54.8499 69.64 56.2686 70.3867 57.2713 71.88C58.2739 73.352 58.7753 75.2187 58.7753 77.48C58.7753 79.7627 58.2526 81.64 57.2073 83.112C56.1833 84.584 54.6793 85.32 52.6953 85.32C51.8846 85.32 51.1699 85.2347 50.5513 85.064C49.9326 84.8933 49.3139 84.6587 48.6953 84.36V91.08H45.8153V73.8ZM51.7353 84.04C53.1006 84.04 54.1033 83.4427 54.7433 82.248C55.4046 81.0533 55.7353 79.464 55.7353 77.48C55.7353 75.5173 55.4259 73.9387 54.8073 72.744C54.1886 71.528 53.2713 70.92 52.0553 70.92C50.6259 70.92 49.5059 71.56 48.6953 72.84V83.08C49.3353 83.3787 49.8899 83.6133 50.3593 83.784C50.8286 83.9547 51.2873 84.04 51.7353 84.04ZM73.722 65.16C72.4207 65.16 71.4287 65.4373 70.746 65.992C70.0633 66.5467 69.722 67.3893 69.722 68.52H69.082V66.44C69.082 64.7333 69.9887 63.88 71.802 63.88H83.002V65.16L75.002 85H72.122L80.122 65.16H73.722ZM91.6302 85.64C90.1156 85.64 88.8249 85.3627 87.7583 84.808C86.6916 84.2533 85.6889 83.4107 84.7503 82.28L85.3583 81.736C86.1689 82.632 87.0436 83.2933 87.9823 83.72C88.9209 84.1467 89.9769 84.36 91.1503 84.36C92.5369 84.36 93.6783 83.9227 94.5743 83.048C95.4916 82.152 95.9503 80.8293 95.9503 79.08C95.9503 77.4373 95.5023 76.2 94.6063 75.368C93.7316 74.536 92.4729 74.12 90.8303 74.12C89.8703 74.12 88.9636 74.1733 88.1102 74.28L86.8303 74.44L85.5503 73.16L85.8703 63.88H97.8703V65.16H88.4943L88.2063 73L89.2303 72.936C90.4463 72.872 91.1929 72.84 91.4703 72.84C93.5183 72.84 95.3103 73.3093 96.8463 74.248C98.3823 75.1653 99.1503 76.776 99.1503 79.08C99.1503 80.7653 98.7343 82.0987 97.9023 83.08C97.0916 84.04 96.1209 84.7013 94.9903 85.064C93.8596 85.448 92.7396 85.64 91.6302 85.64ZM109.719 85.64C104.599 85.64 102.039 81.9067 102.039 74.44C102.039 66.9733 104.599 63.24 109.719 63.24C114.839 63.24 117.399 66.9733 117.399 74.44C117.399 81.9067 114.839 85.64 109.719 85.64ZM109.719 84.36C110.871 84.36 111.767 84.008 112.407 83.304C113.068 82.6 113.527 81.5333 113.783 80.104C114.06 78.6533 114.199 76.7653 114.199 74.44C114.199 72.1147 114.06 70.2373 113.783 68.808C113.527 67.3573 113.068 66.28 112.407 65.576C111.767 64.872 110.871 64.52 109.719 64.52C108.567 64.52 107.66 64.872 106.999 65.576C106.359 66.28 105.9 67.3573 105.623 68.808C105.367 70.2373 105.239 72.1147 105.239 74.44C105.239 76.7653 105.367 78.6533 105.623 80.104C105.9 81.5333 106.359 82.6 106.999 83.304C107.66 84.008 108.567 84.36 109.719 84.36ZM122.145 85.448C121.676 85.448 121.27 85.2773 120.929 84.936C120.588 84.5947 120.417 84.1787 120.417 83.688C120.417 83.2187 120.588 82.8133 120.929 82.472C121.27 82.1307 121.676 81.96 122.145 81.96C122.636 81.96 123.041 82.1307 123.361 82.472C123.702 82.8133 123.873 83.2187 123.873 83.688C123.873 84.1787 123.702 84.5947 123.361 84.936C123.02 85.2773 122.614 85.448 122.145 85.448ZM134.563 85.64C129.443 85.64 126.883 81.9067 126.883 74.44C126.883 66.9733 129.443 63.24 134.563 63.24C139.683 63.24 142.243 66.9733 142.243 74.44C142.243 81.9067 139.683 85.64 134.563 85.64ZM134.563 84.36C135.715 84.36 136.611 84.008 137.251 83.304C137.912 82.6 138.371 81.5333 138.627 80.104C138.904 78.6533 139.043 76.7653 139.043 74.44C139.043 72.1147 138.904 70.2373 138.627 68.808C138.371 67.3573 137.912 66.28 137.251 65.576C136.611 64.872 135.715 64.52 134.563 64.52C133.411 64.52 132.504 64.872 131.843 65.576C131.203 66.28 130.744 67.3573 130.467 68.808C130.211 70.2373 130.083 72.1147 130.083 74.44C130.083 76.7653 130.211 78.6533 130.467 80.104C130.744 81.5333 131.203 82.6 131.843 83.304C132.504 84.008 133.411 84.36 134.563 84.36ZM153.25 85.64C148.13 85.64 145.57 81.9067 145.57 74.44C145.57 66.9733 148.13 63.24 153.25 63.24C158.37 63.24 160.93 66.9733 160.93 74.44C160.93 81.9067 158.37 85.64 153.25 85.64ZM153.25 84.36C154.402 84.36 155.298 84.008 155.938 83.304C156.6 82.6 157.058 81.5333 157.314 80.104C157.592 78.6533 157.73 76.7653 157.73 74.44C157.73 72.1147 157.592 70.2373 157.314 68.808C157.058 67.3573 156.6 66.28 155.938 65.576C155.298 64.872 154.402 64.52 153.25 64.52C152.098 64.52 151.192 64.872 150.53 65.576C149.89 66.28 149.432 67.3573 149.154 68.808C148.898 70.2373 148.77 72.1147 148.77 74.44C148.77 76.7653 148.898 78.6533 149.154 80.104C149.432 81.5333 149.89 82.6 150.53 83.304C151.192 84.008 152.098 84.36 153.25 84.36ZM171.938 85.64C166.818 85.64 164.258 81.9067 164.258 74.44C164.258 66.9733 166.818 63.24 171.938 63.24C177.058 63.24 179.618 66.9733 179.618 74.44C179.618 81.9067 177.058 85.64 171.938 85.64ZM171.938 84.36C173.09 84.36 173.986 84.008 174.626 83.304C175.287 82.6 175.746 81.5333 176.002 80.104C176.279 78.6533 176.418 76.7653 176.418 74.44C176.418 72.1147 176.279 70.2373 176.002 68.808C175.746 67.3573 175.287 66.28 174.626 65.576C173.986 64.872 173.09 64.52 171.938 64.52C170.786 64.52 169.879 64.872 169.218 65.576C168.578 66.28 168.119 67.3573 167.842 68.808C167.586 70.2373 167.458 72.1147 167.458 74.44C167.458 76.7653 167.586 78.6533 167.842 80.104C168.119 81.5333 168.578 82.6 169.218 83.304C169.879 84.008 170.786 84.36 171.938 84.36Z" fill="#333333"/>
<path d="M193.506 62.544L188.574 82.56H186.954L191.868 62.544H193.506ZM204.515 70.626C204.515 71.67 204.155 72.54 203.435 73.236C202.727 73.92 201.641 74.262 200.177 74.262H197.765V79.5H196.127V66.954H200.177C201.593 66.954 202.667 67.296 203.399 67.98C204.143 68.664 204.515 69.546 204.515 70.626ZM200.177 72.912C201.089 72.912 201.761 72.714 202.193 72.318C202.625 71.922 202.841 71.358 202.841 70.626C202.841 69.078 201.953 68.304 200.177 68.304H197.765V72.912H200.177ZM215.73 74.19C215.73 74.502 215.712 74.832 215.676 75.18H207.792C207.852 76.152 208.182 76.914 208.782 77.466C209.394 78.006 210.132 78.276 210.996 78.276C211.704 78.276 212.292 78.114 212.76 77.79C213.24 77.454 213.576 77.01 213.768 76.458H215.532C215.268 77.406 214.74 78.18 213.948 78.78C213.156 79.368 212.172 79.662 210.996 79.662C210.06 79.662 209.22 79.452 208.476 79.032C207.744 78.612 207.168 78.018 206.748 77.25C206.328 76.47 206.118 75.57 206.118 74.55C206.118 73.53 206.322 72.636 206.73 71.868C207.138 71.1 207.708 70.512 208.44 70.104C209.184 69.684 210.036 69.474 210.996 69.474C211.932 69.474 212.76 69.678 213.48 70.086C214.2 70.494 214.752 71.058 215.136 71.778C215.532 72.486 215.73 73.29 215.73 74.19ZM214.038 73.848C214.038 73.224 213.9 72.69 213.624 72.246C213.348 71.79 212.97 71.448 212.49 71.22C212.022 70.98 211.5 70.86 210.924 70.86C210.096 70.86 209.388 71.124 208.8 71.652C208.224 72.18 207.894 72.912 207.81 73.848H214.038ZM219.71 71.238C219.998 70.674 220.406 70.236 220.934 69.924C221.474 69.612 222.128 69.456 222.896 69.456V71.148H222.464C220.628 71.148 219.71 72.144 219.71 74.136V79.5H218.072V69.636H219.71V71.238ZM228.459 79.662C227.703 79.662 227.025 79.536 226.425 79.284C225.825 79.02 225.351 78.66 225.003 78.204C224.655 77.736 224.463 77.202 224.427 76.602H226.119C226.167 77.094 226.395 77.496 226.803 77.808C227.223 78.12 227.769 78.276 228.441 78.276C229.065 78.276 229.557 78.138 229.917 77.862C230.277 77.586 230.457 77.238 230.457 76.818C230.457 76.386 230.265 76.068 229.881 75.864C229.497 75.648 228.903 75.438 228.099 75.234C227.367 75.042 226.767 74.85 226.299 74.658C225.843 74.454 225.447 74.16 225.111 73.776C224.787 73.38 224.625 72.864 224.625 72.228C224.625 71.724 224.775 71.262 225.075 70.842C225.375 70.422 225.801 70.092 226.353 69.852C226.905 69.6 227.535 69.474 228.243 69.474C229.335 69.474 230.217 69.75 230.889 70.302C231.561 70.854 231.921 71.61 231.969 72.57H230.331C230.295 72.054 230.085 71.64 229.701 71.328C229.329 71.016 228.825 70.86 228.189 70.86C227.601 70.86 227.133 70.986 226.785 71.238C226.437 71.49 226.263 71.82 226.263 72.228C226.263 72.552 226.365 72.822 226.569 73.038C226.785 73.242 227.049 73.41 227.361 73.542C227.685 73.662 228.129 73.8 228.693 73.956C229.401 74.148 229.977 74.34 230.421 74.532C230.865 74.712 231.243 74.988 231.555 75.36C231.879 75.732 232.047 76.218 232.059 76.818C232.059 77.358 231.909 77.844 231.609 78.276C231.309 78.708 230.883 79.05 230.331 79.302C229.791 79.542 229.167 79.662 228.459 79.662ZM238.854 79.662C237.93 79.662 237.09 79.452 236.334 79.032C235.59 78.612 235.002 78.018 234.57 77.25C234.15 76.47 233.94 75.57 233.94 74.55C233.94 73.542 234.156 72.654 234.588 71.886C235.032 71.106 235.632 70.512 236.388 70.104C237.144 69.684 237.99 69.474 238.926 69.474C239.862 69.474 240.708 69.684 241.464 70.104C242.22 70.512 242.814 71.1 243.246 71.868C243.69 72.636 243.912 73.53 243.912 74.55C243.912 75.57 243.684 76.47 243.228 77.25C242.784 78.018 242.178 78.612 241.41 79.032C240.642 79.452 239.79 79.662 238.854 79.662ZM238.854 78.222C239.442 78.222 239.994 78.084 240.51 77.808C241.026 77.532 241.44 77.118 241.752 76.566C242.076 76.014 242.238 75.342 242.238 74.55C242.238 73.758 242.082 73.086 241.77 72.534C241.458 71.982 241.05 71.574 240.546 71.31C240.042 71.034 239.496 70.896 238.908 70.896C238.308 70.896 237.756 71.034 237.252 71.31C236.76 71.574 236.364 71.982 236.064 72.534C235.764 73.086 235.614 73.758 235.614 74.55C235.614 75.354 235.758 76.032 236.046 76.584C236.346 77.136 236.742 77.55 237.234 77.826C237.726 78.09 238.266 78.222 238.854 78.222ZM251.051 69.456C252.251 69.456 253.223 69.822 253.967 70.554C254.711 71.274 255.083 72.318 255.083 73.686V79.5H253.463V73.92C253.463 72.936 253.217 72.186 252.725 71.67C252.233 71.142 251.561 70.878 250.709 70.878C249.845 70.878 249.155 71.148 248.639 71.688C248.135 72.228 247.883 73.014 247.883 74.046V79.5H246.245V69.636H247.883V71.04C248.207 70.536 248.645 70.146 249.197 69.87C249.761 69.594 250.379 69.456 251.051 69.456Z" fill="#707070"/>
<rect x="24" y="117" width="373" height="48" rx="24" fill="#3BB3AB"/>
<path d="M137.443 141.4C137.443 140.301 137.688 139.32 138.179 138.456C138.68 137.581 139.357 136.904 140.211 136.424C141.075 135.933 142.04 135.688 143.107 135.688C144.355 135.688 145.448 136.008 146.387 136.648C147.325 137.288 147.981 138.173 148.355 139.304H145.779C145.523 138.771 145.16 138.371 144.691 138.104C144.232 137.837 143.699 137.704 143.091 137.704C142.44 137.704 141.859 137.859 141.347 138.168C140.845 138.467 140.451 138.893 140.163 139.448C139.885 140.003 139.747 140.653 139.747 141.4C139.747 142.136 139.885 142.787 140.163 143.352C140.451 143.907 140.845 144.339 141.347 144.648C141.859 144.947 142.44 145.096 143.091 145.096C143.699 145.096 144.232 144.963 144.691 144.696C145.16 144.419 145.523 144.013 145.779 143.48H148.355C147.981 144.621 147.325 145.512 146.387 146.152C145.459 146.781 144.365 147.096 143.107 147.096C142.04 147.096 141.075 146.856 140.211 146.376C139.357 145.885 138.68 145.208 138.179 144.344C137.688 143.48 137.443 142.499 137.443 141.4ZM155.26 138.008C155.932 138.008 156.529 138.157 157.052 138.456C157.575 138.744 157.98 139.176 158.268 139.752C158.567 140.317 158.716 141 158.716 141.8V147H156.476V142.104C156.476 141.4 156.3 140.861 155.948 140.488C155.596 140.104 155.116 139.912 154.508 139.912C153.889 139.912 153.399 140.104 153.036 140.488C152.684 140.861 152.508 141.4 152.508 142.104V147H150.268V135.16H152.508V139.24C152.796 138.856 153.18 138.557 153.66 138.344C154.14 138.12 154.673 138.008 155.26 138.008ZM169.086 142.376C169.086 142.696 169.065 142.984 169.022 143.24H162.542C162.596 143.88 162.82 144.381 163.214 144.744C163.609 145.107 164.094 145.288 164.67 145.288C165.502 145.288 166.094 144.931 166.446 144.216H168.862C168.606 145.069 168.116 145.773 167.39 146.328C166.665 146.872 165.774 147.144 164.718 147.144C163.865 147.144 163.097 146.957 162.414 146.584C161.742 146.2 161.214 145.661 160.83 144.968C160.457 144.275 160.27 143.475 160.27 142.568C160.27 141.651 160.457 140.845 160.83 140.152C161.204 139.459 161.726 138.925 162.398 138.552C163.07 138.179 163.844 137.992 164.718 137.992C165.561 137.992 166.313 138.173 166.974 138.536C167.646 138.899 168.164 139.416 168.526 140.088C168.9 140.749 169.086 141.512 169.086 142.376ZM166.766 141.736C166.756 141.16 166.548 140.701 166.142 140.36C165.737 140.008 165.241 139.832 164.654 139.832C164.1 139.832 163.63 140.003 163.246 140.344C162.873 140.675 162.644 141.139 162.558 141.736H166.766ZM170.145 142.568C170.145 141.651 170.332 140.851 170.705 140.168C171.079 139.475 171.596 138.941 172.257 138.568C172.919 138.184 173.676 137.992 174.529 137.992C175.628 137.992 176.535 138.269 177.249 138.824C177.975 139.368 178.46 140.136 178.705 141.128H176.289C176.161 140.744 175.943 140.445 175.633 140.232C175.335 140.008 174.961 139.896 174.513 139.896C173.873 139.896 173.367 140.131 172.993 140.6C172.62 141.059 172.433 141.715 172.433 142.568C172.433 143.411 172.62 144.067 172.993 144.536C173.367 144.995 173.873 145.224 174.513 145.224C175.42 145.224 176.012 144.819 176.289 144.008H178.705C178.46 144.968 177.975 145.731 177.249 146.296C176.524 146.861 175.617 147.144 174.529 147.144C173.676 147.144 172.919 146.957 172.257 146.584C171.596 146.2 171.079 145.667 170.705 144.984C170.332 144.291 170.145 143.485 170.145 142.568ZM185.594 147L182.586 143.224V147H180.346V135.16H182.586V141.896L185.562 138.136H188.474L184.57 142.584L188.506 147H185.594ZM200.35 144.872H195.902L195.166 147H192.814L196.83 135.816H199.438L203.454 147H201.086L200.35 144.872ZM199.742 143.08L198.126 138.408L196.51 143.08H199.742ZM208.652 144.936L210.892 138.136H213.276L209.996 147H207.276L204.012 138.136H206.412L208.652 144.936ZM213.958 142.536C213.958 141.64 214.134 140.845 214.486 140.152C214.848 139.459 215.334 138.925 215.942 138.552C216.56 138.179 217.248 137.992 218.006 137.992C218.667 137.992 219.243 138.125 219.734 138.392C220.235 138.659 220.635 138.995 220.934 139.4V138.136H223.19V147H220.934V145.704C220.646 146.12 220.246 146.467 219.734 146.744C219.232 147.011 218.651 147.144 217.99 147.144C217.243 147.144 216.56 146.952 215.942 146.568C215.334 146.184 214.848 145.645 214.486 144.952C214.134 144.248 213.958 143.443 213.958 142.536ZM220.934 142.568C220.934 142.024 220.827 141.56 220.614 141.176C220.4 140.781 220.112 140.483 219.75 140.28C219.387 140.067 218.998 139.96 218.582 139.96C218.166 139.96 217.782 140.061 217.43 140.264C217.078 140.467 216.79 140.765 216.566 141.16C216.352 141.544 216.246 142.003 216.246 142.536C216.246 143.069 216.352 143.539 216.566 143.944C216.79 144.339 217.078 144.643 217.43 144.856C217.792 145.069 218.176 145.176 218.582 145.176C218.998 145.176 219.387 145.075 219.75 144.872C220.112 144.659 220.4 144.36 220.614 143.976C220.827 143.581 220.934 143.112 220.934 142.568ZM226.513 137.08C226.119 137.08 225.788 136.957 225.521 136.712C225.265 136.456 225.137 136.141 225.137 135.768C225.137 135.395 225.265 135.085 225.521 134.84C225.788 134.584 226.119 134.456 226.513 134.456C226.908 134.456 227.233 134.584 227.489 134.84C227.756 135.085 227.889 135.395 227.889 135.768C227.889 136.141 227.756 136.456 227.489 136.712C227.233 136.957 226.908 137.08 226.513 137.08ZM227.617 138.136V147H225.377V138.136H227.617ZM232.071 135.16V147H229.831V135.16H232.071ZM233.708 142.536C233.708 141.64 233.884 140.845 234.236 140.152C234.598 139.459 235.084 138.925 235.692 138.552C236.31 138.179 236.998 137.992 237.756 137.992C238.417 137.992 238.993 138.125 239.484 138.392C239.985 138.659 240.385 138.995 240.684 139.4V138.136H242.94V147H240.684V145.704C240.396 146.12 239.996 146.467 239.484 146.744C238.982 147.011 238.401 147.144 237.74 147.144C236.993 147.144 236.31 146.952 235.692 146.568C235.084 146.184 234.598 145.645 234.236 144.952C233.884 144.248 233.708 143.443 233.708 142.536ZM240.684 142.568C240.684 142.024 240.577 141.56 240.364 141.176C240.15 140.781 239.862 140.483 239.5 140.28C239.137 140.067 238.748 139.96 238.332 139.96C237.916 139.96 237.532 140.061 237.18 140.264C236.828 140.467 236.54 140.765 236.316 141.16C236.102 141.544 235.996 142.003 235.996 142.536C235.996 143.069 236.102 143.539 236.316 143.944C236.54 144.339 236.828 144.643 237.18 144.856C237.542 145.069 237.926 145.176 238.332 145.176C238.748 145.176 239.137 145.075 239.5 144.872C239.862 144.659 240.15 144.36 240.364 143.976C240.577 143.581 240.684 143.112 240.684 142.568ZM247.367 139.432C247.655 139.005 248.05 138.659 248.551 138.392C249.063 138.125 249.645 137.992 250.295 137.992C251.053 137.992 251.735 138.179 252.343 138.552C252.962 138.925 253.447 139.459 253.799 140.152C254.162 140.835 254.343 141.629 254.343 142.536C254.343 143.443 254.162 144.248 253.799 144.952C253.447 145.645 252.962 146.184 252.343 146.568C251.735 146.952 251.053 147.144 250.295 147.144C249.634 147.144 249.053 147.016 248.551 146.76C248.061 146.493 247.666 146.152 247.367 145.736V147H245.127V135.16H247.367V139.432ZM252.055 142.536C252.055 142.003 251.943 141.544 251.719 141.16C251.506 140.765 251.218 140.467 250.855 140.264C250.503 140.061 250.119 139.96 249.703 139.96C249.298 139.96 248.914 140.067 248.551 140.28C248.199 140.483 247.911 140.781 247.687 141.176C247.474 141.571 247.367 142.035 247.367 142.568C247.367 143.101 247.474 143.565 247.687 143.96C247.911 144.355 248.199 144.659 248.551 144.872C248.914 145.075 249.298 145.176 249.703 145.176C250.119 145.176 250.503 145.069 250.855 144.856C251.218 144.643 251.506 144.339 251.719 143.944C251.943 143.549 252.055 143.08 252.055 142.536ZM257.107 137.08C256.713 137.08 256.382 136.957 256.115 136.712C255.859 136.456 255.731 136.141 255.731 135.768C255.731 135.395 255.859 135.085 256.115 134.84C256.382 134.584 256.713 134.456 257.107 134.456C257.502 134.456 257.827 134.584 258.083 134.84C258.35 135.085 258.483 135.395 258.483 135.768C258.483 136.141 258.35 136.456 258.083 136.712C257.827 136.957 257.502 137.08 257.107 137.08ZM258.211 138.136V147H255.971V138.136H258.211ZM262.664 135.16V147H260.424V135.16H262.664ZM266.013 137.08C265.619 137.08 265.288 136.957 265.021 136.712C264.765 136.456 264.637 136.141 264.637 135.768C264.637 135.395 264.765 135.085 265.021 134.84C265.288 134.584 265.619 134.456 266.013 134.456C266.408 134.456 266.733 134.584 266.989 134.84C267.256 135.085 267.389 135.395 267.389 135.768C267.389 136.141 267.256 136.456 266.989 136.712C266.733 136.957 266.408 137.08 266.013 137.08ZM267.117 138.136V147H264.877V138.136H267.117ZM271.939 139.976V144.264C271.939 144.563 272.008 144.781 272.147 144.92C272.296 145.048 272.541 145.112 272.883 145.112H273.923V147H272.515C270.627 147 269.683 146.083 269.683 144.248V139.976H268.627V138.136H269.683V135.944H271.939V138.136H273.923V139.976H271.939ZM284.014 138.136L278.526 151.192H276.142L278.062 146.776L274.51 138.136H277.022L279.31 144.328L281.63 138.136H284.014Z" fill="white"/>
</g>
<rect x="0.5" y="0.5" width="420" height="188" rx="15.5" stroke="#EBEBEB"/>
<defs>
<clipPath id="clip0_160_7538">
<rect width="421" height="189" rx="16" fill="white"/>
</clipPath>
</defs>
</svg>
