<svg width="375" height="284" viewBox="0 0 375 284" fill="none" xmlns="http://www.w3.org/2000/svg">
<path fill-rule="evenodd" clip-rule="evenodd" d="M281.799 89.961C185.326 89.961 169.864 215.3 111.543 266.058C153.939 298.369 206.503 283.201 228.689 236.855C245.916 200.888 271.085 140.256 330.876 140.256C346.927 140.256 361.927 144.878 374.574 152.862C359.91 115.97 323.901 89.9189 281.799 89.9189" fill="#3BB3AB"/>
<path fill-rule="evenodd" clip-rule="evenodd" d="M-49.8895 89.9604C-72.7052 89.9604 -92.5796 102.524 -103 121.138C-60.7721 122.818 -55.0577 161.055 -45.2255 192.442C-40.2674 208.241 -25.5612 219.249 -8.71206 219.249C12.4229 219.249 29.5661 202.106 29.5661 180.971C29.5661 147.525 -12.5777 89.9604 -49.8895 89.9604Z" fill="#3BB3AB"/>
<path fill-rule="evenodd" clip-rule="evenodd" d="M221.084 0C84.8201 0 75.9543 287.36 -30.0986 231.896C-23.2497 250.006 -9.63596 265.552 9.23003 274.46C140.494 336.436 146.04 56.2198 263.438 56.2198C284.573 56.2198 303.817 64.2032 318.313 77.3548C308.145 33.068 268.438 0 221.042 0" fill="#3BB3AB"/>
</svg>
